<?xml version="1.0" standalone="no"?>
<!DOCTYPE svg PUBLIC "-//W3C//DTD SVG 20010904//EN"
 "http://www.w3.org/TR/2001/REC-SVG-20010904/DTD/svg10.dtd">
<svg version="1.0" xmlns="http://www.w3.org/2000/svg"
 width="500.000000pt" height="500.000000pt" viewBox="0 0 500.000000 500.000000"
 preserveAspectRatio="xMidYMid meet">
<metadata>
Created by potrace 1.14, written by Peter Selinger 2001-2017
</metadata>
<g transform="translate(0.000000,500.000000) scale(0.100000,-0.100000)"
fill="#000000" stroke="none">
<path d="M2280 4989 c-115 -9 -289 -38 -390 -64 -36 -9 -72 -18 -81 -20 -36
-7 -249 -86 -319 -117 -154 -68 -409 -219 -511 -302 -95 -77 -119 -97 -177
-151 -36 -33 -83 -80 -106 -104 -23 -24 -52 -56 -66 -71 -22 -24 -41 -46 -116
-139 -64 -79 -244 -370 -244 -394 0 -6 -6 -18 -14 -26 -15 -18 -79 -168 -119
-281 -95 -265 -146 -621 -132 -915 24 -515 160 -918 455 -1349 81 -118 125
-170 270 -316 138 -139 276 -251 437 -355 68 -43 236 -135 293 -159 25 -11 68
-30 97 -42 28 -13 77 -31 110 -40 32 -9 65 -21 73 -26 22 -12 209 -58 330 -79
250 -46 657 -43 897 6 105 21 276 64 298 75 11 5 48 19 83 30 68 21 85 28 241
102 98 47 274 148 331 190 273 204 434 365 638 638 42 57 143 233 190 331 73
154 77 165 116 279 120 354 157 713 115 1115 -14 136 -72 405 -99 460 -5 11
-18 47 -28 80 -27 86 -47 132 -128 290 -88 174 -132 242 -259 407 -125 162
-368 394 -525 501 -356 242 -702 379 -1090 432 -138 19 -425 26 -570 14z"/>
</g>
</svg>
